<?xml version="1.0" standalone="no"?>
<!DOCTYPE svg PUBLIC "-//W3C//DTD SVG 20010904//EN"
 "http://www.w3.org/TR/2001/REC-SVG-20010904/DTD/svg10.dtd">
<svg version="1.0" xmlns="http://www.w3.org/2000/svg"
 width="463.000000pt" height="483.000000pt" viewBox="0 0 463.000000 483.000000"
 preserveAspectRatio="xMidYMid meet">

<g transform="translate(0.000000,483.000000) scale(0.100000,-0.100000)"
fill="#000000" stroke="none">
<path d="M20 2425 l0 -2405 2295 0 2295 0 0 2405 0 2405 -2295 0 -2295 0 0
-2405z m2600 2239 c861 -123 1571 -763 1780 -1603 46 -185 62 -316 62 -516 1
-362 -71 -665 -234 -987 -212 -419 -545 -745 -973 -953 -311 -152 -592 -216
-940 -216 -348 0 -629 64 -940 216 -443 216 -773 546 -990 990 -108 220 -175
441 -206 680 -17 132 -14 428 5 560 79 523 331 987 721 1323 479 412 1097 595
1715 506z"/>
<path d="M2135 4653 c-1130 -98 -1982 -1061 -1942 -2193 12 -317 77 -581 216
-865 270 -552 783 -968 1380 -1120 195 -49 281 -59 526 -59 245 0 331 10 526
59 356 90 685 275 953 534 330 320 536 715 622 1196 25 140 26 517 1 660 -40
228 -96 403 -192 600 -357 736 -1111 1204 -1922 1193 -70 -1 -146 -3 -168 -5z
m220 -151 l31 -77 78 -5 79 -5 -58 -40 c-32 -22 -62 -43 -67 -46 -6 -4 0 -39
15 -88 14 -44 22 -81 18 -81 -4 0 -34 20 -67 45 -32 24 -63 45 -67 45 -5 0
-35 -21 -68 -46 -33 -25 -62 -44 -65 -41 -3 3 5 39 17 81 12 42 20 78 18 80
-2 2 -33 24 -69 50 l-64 46 79 0 80 0 19 48 c11 26 26 62 33 80 7 17 17 32 21
32 4 0 21 -35 37 -78z m-507 -137 l20 -50 56 -3 c31 -2 56 -6 56 -10 0 -4 -20
-20 -45 -35 -25 -16 -45 -32 -45 -36 0 -4 7 -31 16 -60 8 -29 14 -55 11 -57
-2 -2 -25 12 -51 31 -49 38 -49 38 -109 -8 -21 -16 -40 -27 -42 -25 -3 3 3 31
14 62 l19 58 -51 36 -52 37 59 3 58 3 26 60 c14 33 29 56 33 52 4 -5 16 -30
27 -58z m1079 -57 l58 -3 -52 -37 -52 -37 19 -57 c11 -32 18 -59 15 -62 -2 -2
-21 9 -42 25 -59 46 -59 46 -113 7 -55 -39 -57 -37 -35 26 21 61 20 65 -30 97
-25 15 -45 31 -45 36 0 4 25 7 55 7 48 0 57 3 64 23 5 12 16 40 26 62 l17 40
28 -62 29 -62 58 -3z m-1377 -149 c17 -31 8 -43 -67 -84 -462 -257 -777 -681
-883 -1190 -172 -820 272 -1655 1049 -1976 222 -91 416 -129 667 -129 390 0
738 115 1054 349 107 79 294 270 372 381 150 212 250 450 305 725 22 113 25
450 5 565 -77 427 -262 766 -569 1041 -86 77 -252 193 -344 240 -46 23 -59 34
-59 52 0 26 17 47 38 47 25 0 190 -100 291 -175 127 -95 214 -177 308 -288
410 -488 539 -1150 343 -1759 -41 -127 -166 -373 -247 -488 -88 -123 -311
-346 -433 -432 -250 -177 -560 -295 -858 -328 -156 -17 -405 -8 -547 20 -384
76 -735 269 -995 548 -252 270 -406 577 -472 942 -28 156 -30 447 -4 604 93
561 417 1024 921 1315 79 45 109 50 125 20z m1058 -168 c298 -65 537 -195 752
-411 223 -222 356 -473 417 -785 12 -64 17 -139 17 -260 1 -177 -6 -231 -27
-222 -198 87 -245 112 -284 155 -48 51 -50 62 -31 172 9 54 16 70 29 70 22 0
41 31 67 109 27 79 28 117 5 130 -14 7 -19 25 -21 80 -5 137 -64 266 -144 318
-24 15 -49 35 -55 45 -11 14 -28 15 -115 11 -155 -7 -214 -25 -284 -87 -39
-36 -55 -57 -50 -67 4 -8 13 -25 21 -39 8 -14 15 -42 15 -62 0 -49 -55 -218
-86 -263 -21 -32 -23 -41 -14 -73 13 -50 46 -102 65 -102 8 0 17 -12 20 -27 4
-16 10 -47 16 -70 14 -63 12 -113 -5 -113 -33 0 -24 -21 16 -37 80 -32 282
-134 436 -220 169 -95 214 -135 271 -243 32 -59 33 -64 19 -93 l-15 -31 -36
75 c-55 114 -89 147 -249 239 -149 85 -379 200 -483 240 -65 26 -106 57 -136
106 -10 18 -28 34 -39 37 -17 4 -20 14 -20 59 0 29 7 85 16 123 8 39 18 80 20
93 3 13 12 22 23 22 38 0 81 83 119 226 18 70 8 114 -26 114 -15 0 -18 6 -14
30 7 51 -16 212 -43 289 -40 118 -99 198 -186 250 -21 12 -44 32 -52 45 -16
23 -17 23 -175 21 -88 -2 -169 -8 -180 -14 -11 -6 -41 -15 -67 -21 -27 -6 -63
-23 -81 -38 -18 -15 -50 -39 -72 -54 -55 -36 -86 -94 -117 -216 -22 -84 -26
-120 -23 -197 3 -86 1 -95 -15 -95 -23 0 -38 -41 -31 -82 11 -61 56 -188 78
-221 13 -19 32 -33 47 -35 23 -3 26 -9 38 -80 7 -42 15 -108 18 -145 4 -60 2
-69 -14 -73 -10 -3 -34 -29 -54 -57 -32 -46 -45 -56 -120 -86 -222 -90 -613
-304 -663 -363 -18 -21 -50 -74 -71 -118 -22 -44 -42 -80 -45 -80 -4 0 -11 12
-16 27 -9 24 -5 39 25 97 59 113 93 144 279 250 150 85 330 176 435 220 37 15
43 36 10 36 -13 0 -14 10 -10 58 13 128 19 152 38 152 23 0 44 31 64 91 16 47
16 49 -9 86 -29 45 -86 220 -86 264 0 17 7 46 16 65 15 32 15 35 -6 64 -12 17
-46 49 -75 70 -30 22 -56 44 -59 49 -8 12 -196 4 -256 -11 -48 -12 -131 -61
-167 -100 -37 -39 -64 -133 -70 -238 -4 -65 -10 -98 -19 -103 -20 -11 -17 -64
6 -132 26 -75 46 -105 69 -105 20 0 21 -5 37 -152 5 -46 3 -58 -7 -58 -8 0
-24 -16 -37 -36 -15 -23 -40 -43 -70 -56 -26 -11 -88 -40 -139 -63 l-92 -43
-8 36 c-4 20 -8 116 -7 212 0 140 5 195 22 277 42 193 117 373 228 541 76 115
281 320 395 395 200 132 417 215 649 247 105 14 371 4 478 -19z m133 -1543
c13 -25 -23 -104 -81 -176 -46 -57 -280 -259 -318 -273 -16 -6 -32 -4 -50 5
-40 21 -218 174 -283 243 -87 91 -129 189 -97 221 19 19 25 14 21 -15 -8 -51
98 -159 310 -317 l77 -59 43 28 c137 90 316 254 337 310 5 14 7 38 3 53 -6 25
-5 26 11 13 9 -8 22 -23 27 -33z m-1305 -662 c19 -61 14 -96 -18 -126 -36 -34
-81 -26 -133 21 -25 23 -45 45 -45 50 0 5 18 9 40 9 32 0 48 -7 82 -37 23 -21
39 -31 36 -22 -27 73 -30 95 -14 133 8 20 20 35 25 31 6 -3 18 -30 27 -59z
m1814 45 c15 -29 12 -98 -5 -131 -20 -39 -11 -38 36 5 31 28 47 35 79 35 22 0
40 -4 40 -9 0 -5 -20 -27 -45 -50 -54 -50 -97 -55 -139 -16 -31 29 -34 68 -9
138 19 51 27 57 43 28z m-1710 -140 c54 -76 57 -124 10 -171 -27 -27 -63 -25
-121 7 -55 29 -58 43 -11 57 25 7 41 4 81 -16 l50 -24 -25 41 c-16 28 -24 57
-24 88 0 54 10 59 40 18z m1600 -25 c0 -30 -8 -55 -25 -80 -14 -20 -25 -38
-25 -40 0 -2 23 8 50 22 41 20 57 23 82 16 17 -5 33 -14 35 -20 4 -13 -88 -64
-117 -64 -52 0 -97 58 -85 110 8 37 63 113 75 105 6 -3 10 -26 10 -49z m-1404
-128 c23 -44 18 -86 -15 -119 -34 -33 -62 -36 -123 -12 -59 22 -67 31 -44 49
25 18 87 18 131 -1 l35 -14 -35 46 c-29 38 -35 54 -35 96 l0 51 36 -35 c20
-18 42 -46 50 -61z m1254 52 c0 -45 -17 -85 -49 -114 -31 -28 -25 -37 14 -20
56 23 145 14 145 -15 0 -12 -94 -51 -124 -51 -13 0 -38 12 -55 26 -26 21 -31
33 -31 69 0 35 7 52 41 94 22 28 45 51 50 51 5 0 9 -18 9 -40z m-1094 -133
c37 -41 42 -72 19 -116 -18 -36 -62 -54 -111 -46 -86 15 -93 24 -41 56 25 16
44 19 86 16 l54 -4 -37 30 c-42 34 -66 74 -66 112 l0 26 31 -18 c17 -10 46
-35 65 -56z m934 11 c-10 -28 -29 -53 -57 -74 l-42 -32 57 5 c46 3 63 0 90
-16 51 -33 44 -42 -45 -56 -73 -11 -123 31 -123 103 0 33 22 62 75 101 50 37
65 27 45 -31z m-755 -47 c17 -10 35 -31 41 -50 10 -32 16 -36 108 -63 l97 -28
99 31 c75 23 100 35 100 48 0 31 32 63 88 88 30 13 57 22 60 19 2 -3 -1 -19
-8 -36 -15 -36 -61 -77 -96 -86 -39 -10 -27 -24 21 -24 35 0 51 -6 80 -31 51
-45 46 -53 -32 -46 -61 5 -71 8 -94 37 l-27 32 -71 -23 c-39 -13 -71 -26 -71
-29 0 -4 18 -15 40 -25 22 -10 47 -26 56 -36 14 -16 14 -18 -3 -27 -15 -8 -32
-2 -82 29 l-62 40 -63 -39 c-48 -30 -67 -37 -80 -30 -16 9 -16 11 -1 28 8 9
33 25 55 35 22 10 37 21 35 26 -3 4 -35 17 -71 29 l-66 22 -22 -25 c-26 -33
-64 -47 -122 -47 -48 0 -49 2 -34 31 15 26 62 49 105 49 46 0 44 13 -5 35 -40
18 -80 67 -80 99 0 15 3 15 37 1 21 -9 51 -24 68 -34z"/>
</g>
</svg>
